<mxfile host="65bd71144e">
    <diagram id="VygEsExdOSwnXF9bAD9O" name="Page-1">
        <mxGraphModel dx="555" dy="533" grid="1" gridSize="10" guides="1" tooltips="1" connect="1" arrows="1" fold="1" page="1" pageScale="1" pageWidth="850" pageHeight="1100" background="#ffffff" math="0" shadow="0">
            <root>
                <mxCell id="0"/>
                <mxCell id="1" parent="0"/>
                <mxCell id="13" style="edgeStyle=none;html=1;entryX=0.5;entryY=0;entryDx=0;entryDy=0;rounded=0;" edge="1" parent="1" source="2" target="6">
                    <mxGeometry relative="1" as="geometry"/>
                </mxCell>
                <mxCell id="14" style="edgeStyle=none;html=1;entryX=0.5;entryY=0;entryDx=0;entryDy=0;exitX=0.5;exitY=1;exitDx=0;exitDy=0;rounded=0;" edge="1" parent="1" source="2" target="4">
                    <mxGeometry relative="1" as="geometry"/>
                </mxCell>
                <mxCell id="15" style="edgeStyle=none;html=1;entryX=0.5;entryY=0;entryDx=0;entryDy=0;exitX=0.5;exitY=1;exitDx=0;exitDy=0;rounded=0;" edge="1" parent="1" source="2" target="5">
                    <mxGeometry relative="1" as="geometry"/>
                </mxCell>
                <mxCell id="2" value="吃啥" style="rounded=0;whiteSpace=wrap;html=1;" parent="1" vertex="1">
                    <mxGeometry x="390" y="140" width="120" height="60" as="geometry"/>
                </mxCell>
                <mxCell id="26" style="edgeStyle=none;html=1;entryX=0.5;entryY=0;entryDx=0;entryDy=0;exitX=0.4;exitY=1;exitDx=0;exitDy=0;exitPerimeter=0;rounded=0;" edge="1" parent="1" source="4" target="23">
                    <mxGeometry relative="1" as="geometry"/>
                </mxCell>
                <mxCell id="27" style="edgeStyle=none;html=1;entryX=0.5;entryY=0;entryDx=0;entryDy=0;rounded=0;" edge="1" parent="1" target="24">
                    <mxGeometry relative="1" as="geometry">
                        <mxPoint x="178" y="281" as="sourcePoint"/>
                    </mxGeometry>
                </mxCell>
                <mxCell id="28" style="edgeStyle=none;html=1;entryX=0.5;entryY=0;entryDx=0;entryDy=0;rounded=0;" edge="1" parent="1" target="25">
                    <mxGeometry relative="1" as="geometry">
                        <mxPoint x="178" y="281" as="sourcePoint"/>
                    </mxGeometry>
                </mxCell>
                <mxCell id="4" value="首页展示" style="rounded=0;whiteSpace=wrap;html=1;" vertex="1" parent="1">
                    <mxGeometry x="130" y="240" width="120" height="40" as="geometry"/>
                </mxCell>
                <mxCell id="35" style="edgeStyle=none;html=1;entryX=0.5;entryY=0;entryDx=0;entryDy=0;exitX=0.5;exitY=1;exitDx=0;exitDy=0;rounded=0;" edge="1" parent="1" source="5" target="33">
                    <mxGeometry relative="1" as="geometry"/>
                </mxCell>
                <mxCell id="5" value="我的" style="rounded=0;whiteSpace=wrap;html=1;" vertex="1" parent="1">
                    <mxGeometry x="650" y="240" width="120" height="40" as="geometry"/>
                </mxCell>
                <mxCell id="32" style="edgeStyle=none;html=1;entryX=0.5;entryY=0;entryDx=0;entryDy=0;rounded=0;" edge="1" parent="1" source="6" target="29">
                    <mxGeometry relative="1" as="geometry"/>
                </mxCell>
                <mxCell id="6" value="小组" style="rounded=0;whiteSpace=wrap;html=1;" vertex="1" parent="1">
                    <mxGeometry x="390" y="240" width="120" height="40" as="geometry"/>
                </mxCell>
                <mxCell id="16" value="主要是一个随机点餐的效果，特效是关键。 点餐分为:系统随机点餐、个人随机点餐、小组随机点餐" style="text;html=1;align=left;verticalAlign=middle;whiteSpace=wrap;rounded=0;" vertex="1" parent="1">
                    <mxGeometry x="20" y="450" width="540" height="30" as="geometry"/>
                </mxCell>
                <mxCell id="18" value="个人信息包括，头像，昵称，我的菜单(自定义菜单)简洁为主" style="text;html=1;align=left;verticalAlign=middle;whiteSpace=wrap;rounded=0;" vertex="1" parent="1">
                    <mxGeometry x="20" y="535" width="340" height="30" as="geometry"/>
                </mxCell>
                <mxCell id="19" value="小组可以创建小组，通过邀请码分享给好友达到邀请效果;在这里可以看见小组的每个成员想吃的菜品" style="text;html=1;align=left;verticalAlign=middle;whiteSpace=wrap;rounded=0;" vertex="1" parent="1">
                    <mxGeometry x="22" y="490" width="820" height="30" as="geometry"/>
                </mxCell>
                <mxCell id="23" value="系统随机点餐" style="rounded=0;whiteSpace=wrap;html=1;" vertex="1" parent="1">
                    <mxGeometry y="320" width="81" height="40" as="geometry"/>
                </mxCell>
                <mxCell id="24" value="个人(自定义)随机点餐" style="rounded=0;whiteSpace=wrap;html=1;" vertex="1" parent="1">
                    <mxGeometry x="100" y="320" width="121.5" height="40" as="geometry"/>
                </mxCell>
                <mxCell id="25" value="小组随机点餐" style="rounded=0;whiteSpace=wrap;html=1;" vertex="1" parent="1">
                    <mxGeometry x="240" y="320" width="80" height="40" as="geometry"/>
                </mxCell>
                <mxCell id="29" value="创建小组" style="rounded=0;whiteSpace=wrap;html=1;" vertex="1" parent="1">
                    <mxGeometry x="410" y="320" width="80" height="40" as="geometry"/>
                </mxCell>
                <mxCell id="33" value="个人信息" style="rounded=0;whiteSpace=wrap;html=1;" vertex="1" parent="1">
                    <mxGeometry x="600" y="320" width="80" height="40" as="geometry"/>
                </mxCell>
                <mxCell id="34" value="我的菜单" style="rounded=0;whiteSpace=wrap;html=1;" vertex="1" parent="1">
                    <mxGeometry x="720" y="320" width="80" height="40" as="geometry"/>
                </mxCell>
                <mxCell id="36" style="edgeStyle=none;html=1;entryX=0.625;entryY=0;entryDx=0;entryDy=0;entryPerimeter=0;exitX=0.5;exitY=1;exitDx=0;exitDy=0;exitPerimeter=0;rounded=0;" edge="1" parent="1" source="5" target="34">
                    <mxGeometry relative="1" as="geometry"/>
                </mxCell>
            </root>
        </mxGraphModel>
    </diagram>
</mxfile>